<?xml version="1.0" standalone="no"?>
<!DOCTYPE svg PUBLIC "-//W3C//DTD SVG 20010904//EN"
 "http://www.w3.org/TR/2001/REC-SVG-20010904/DTD/svg10.dtd">
<svg version="1.0" xmlns="http://www.w3.org/2000/svg"
 width="2000.000000pt" height="2000.000000pt" viewBox="0 0 2000.000000 2000.000000"
 preserveAspectRatio="xMidYMid meet">

<g transform="translate(0.000000,2000.000000) scale(0.100000,-0.100000)"
fill="#000000" stroke="none">
<path d="M11680 13500 l0 -60 60 0 60 0 0 60 0 60 -60 0 -60 0 0 -60z"/>
<path d="M11240 13360 l0 -60 60 0 60 0 0 60 0 60 -60 0 -60 0 0 -60z"/>
<path d="M11970 13160 l0 -100 100 0 100 0 0 100 0 100 -100 0 -100 0 0 -100z"/>
<path d="M10920 13040 l0 -120 120 0 120 0 0 120 0 120 -120 0 -120 0 0 -120z"/>
<path d="M11460 13060 l0 -100 100 0 100 0 0 100 0 100 -100 0 -100 0 0 -100z"/>
<path d="M11680 12695 l0 -115 115 0 115 0 0 115 0 115 -115 0 -115 0 0 -115z"/>
<path d="M9427 12699 c-695 -59 -1286 -524 -1501 -1182 -65 -198 -81 -304 -81
-547 0 -166 5 -235 18 -305 10 -49 21 -93 24 -98 3 -4 46 32 97 81 69 67 111
98 171 128 l79 39 131 0 c123 0 135 -2 236 -37 104 -36 270 -114 379 -178 60
-35 57 -37 97 50 16 35 28 82 32 130 5 60 9 75 23 78 30 6 126 -18 150 -38 22
-17 22 -20 10 -66 -7 -27 -38 -100 -69 -162 -31 -62 -54 -114 -52 -116 2 -2
60 -50 129 -106 69 -57 193 -171 276 -255 l151 -153 188 197 c245 255 493 492
680 650 155 131 177 152 267 261 71 85 101 102 180 101 55 0 175 -20 232 -37
18 -6 18 -2 12 67 -9 87 -55 273 -92 373 -14 39 -49 117 -76 174 l-51 102
-148 0 -148 0 -72 -37 c-61 -32 -83 -38 -149 -41 -159 -8 -416 71 -334 102 9
3 25 6 38 6 36 0 177 90 242 154 57 58 114 147 114 180 0 9 -24 22 -62 35
-106 34 -139 41 -240 51 -474 50 -1319 -310 -1728 -736 -113 -118 -154 -195
-155 -286 0 -63 2 -69 35 -103 97 -100 341 -155 630 -141 375 18 966 116 1305
216 86 25 105 35 139 71 36 38 43 41 79 36 45 -6 91 -46 139 -120 58 -90 25
-110 -295 -176 -746 -154 -1332 -197 -1677 -122 -50 11 -112 30 -138 41 -26
12 -105 36 -177 55 -246 63 -400 134 -446 207 -25 40 -21 105 11 190 119 317
699 697 1390 911 271 84 467 120 650 120 151 1 204 -11 422 -93 88 -33 164
-60 170 -60 36 0 -195 151 -337 220 -273 133 -602 195 -898 169z m216 -1155
c63 -22 123 -83 142 -147 19 -63 19 -84 0 -138 -23 -64 -62 -108 -119 -135
-156 -73 -326 35 -326 206 0 70 26 127 78 171 70 58 140 72 225 43z"/>
<path d="M10970 12475 l0 -195 195 0 195 0 0 195 0 195 -195 0 -195 0 0 -195z"/>
<path d="M11171 11068 c-102 -29 -285 -307 -376 -570 -34 -98 -36 -112 -26
-152 6 -24 14 -75 17 -114 6 -64 9 -70 25 -62 26 14 59 12 65 -4 3 -8 -10 -45
-30 -84 -33 -66 -62 -146 -86 -240 -7 -29 -19 -46 -35 -54 -13 -6 -41 -38 -61
-71 -21 -34 -63 -90 -93 -126 l-55 -65 60 43 c102 72 233 193 312 286 257 305
393 661 409 1073 l6 152 -49 -1 c-27 0 -64 -5 -83 -11z"/>
<path d="M10623 10703 c-15 -5 -17 -23 -4 -23 5 0 11 7 15 15 3 8 4 15 3 14
-1 0 -8 -3 -14 -6z"/>
<path d="M8245 10663 c-77 -15 -117 -34 -201 -94 -52 -38 -103 -73 -114 -79
-19 -10 -19 -12 11 -98 17 -48 48 -120 69 -161 l37 -75 11 64 c23 129 98 232
210 287 51 25 68 28 157 28 87 0 107 -3 155 -26 117 -56 191 -157 214 -292
l12 -71 51 84 c28 47 58 100 67 117 l16 33 -60 47 c-78 62 -174 116 -275 158
-120 50 -303 89 -360 78z"/>
<path d="M8970 10144 c-47 -74 -122 -187 -168 -251 -45 -64 -81 -117 -80 -118
2 -2 31 -17 65 -34 34 -17 65 -36 69 -42 11 -19 -20 -35 -110 -57 -85 -21
-186 -59 -186 -71 0 -12 165 -110 270 -160 332 -158 713 -206 1070 -134 l85
18 -99 7 c-366 27 -661 253 -776 596 -30 87 -34 112 -38 240 -2 78 -7 142 -11
142 -3 0 -44 -61 -91 -136z"/>
<path d="M8309 9792 c16 -21 47 -54 69 -75 53 -52 64 -47 163 75 l29 36 -47
-14 c-25 -8 -69 -14 -98 -14 -29 0 -73 6 -98 14 l-47 14 29 -36z"/>
<path d="M6163 8579 c-189 -32 -312 -151 -369 -359 -25 -89 -25 -317 0 -410
40 -155 111 -254 223 -312 100 -52 143 -58 438 -58 l265 0 0 100 0 100 -253 0
c-242 0 -255 1 -297 23 -55 27 -104 96 -119 167 -18 86 -14 266 9 356 25 95
57 139 130 177 l54 27 238 0 238 0 0 100 0 100 -252 -1 c-139 -1 -276 -5 -305
-10z"/>
<path d="M6880 8015 l0 -575 115 0 115 0 0 575 0 575 -115 0 -115 0 0 -575z"/>
<path d="M9800 8436 l0 -154 -167 -4 c-127 -4 -180 -9 -216 -23 -69 -25 -150
-103 -189 -183 -33 -66 -33 -69 -33 -207 0 -136 1 -142 31 -206 42 -89 90
-139 171 -180 l67 -34 283 -3 283 -3 0 576 0 575 -115 0 -115 0 0 -154z m0
-576 l0 -240 -118 0 c-102 0 -124 3 -162 23 -57 28 -87 73 -95 143 -15 116 18
233 77 275 42 30 77 37 196 38 l102 1 0 -240z"/>
<path d="M10250 8015 l0 -575 122 0 121 0 -7 228 c-3 125 -9 326 -11 447 l-6
220 104 -300 c57 -165 126 -366 153 -448 l49 -148 129 3 129 3 141 432 c78
237 145 435 150 440 4 4 5 -64 2 -152 -3 -88 -9 -287 -12 -442 l-6 -283 116 0
116 0 0 575 0 575 -173 0 -173 0 -143 -432 c-79 -238 -146 -436 -150 -441 -4
-4 -72 190 -152 430 l-145 438 -177 3 -177 2 0 -575z"/>
<path d="M7563 8285 c-136 -37 -232 -119 -285 -245 -28 -66 -32 -86 -32 -170
-2 -266 154 -433 420 -447 147 -9 276 38 361 130 160 174 150 478 -22 636
-104 96 -292 136 -442 96z m227 -197 c63 -32 99 -88 112 -174 19 -125 -14
-218 -101 -279 -37 -26 -51 -30 -111 -30 -60 0 -74 4 -111 30 -66 46 -99 118
-99 214 0 42 5 93 11 114 12 45 66 108 112 131 48 23 134 21 187 -6z"/>
<path d="M8272 7962 l3 -318 30 -60 c36 -70 97 -116 175 -133 29 -6 160 -11
305 -11 l255 0 0 420 0 420 -110 0 -110 0 0 -330 0 -330 -115 0 c-127 0 -174
12 -197 52 -10 17 -14 95 -16 316 l-4 292 -110 0 -109 0 3 -318z"/>
<path d="M11780 8197 l0 -85 243 -4 c212 -3 246 -5 270 -21 35 -23 57 -57 64
-101 l6 -36 -174 0 c-204 0 -285 -11 -354 -48 -41 -22 -55 -37 -80 -87 -55
-111 -32 -258 51 -321 66 -51 85 -53 442 -54 l333 0 -3 323 c-3 366 -3 366
-92 444 -72 63 -87 66 -413 70 l-293 5 0 -85z m580 -507 l0 -90 -159 0 c-213
0 -241 11 -241 98 0 38 16 62 50 75 8 3 90 6 183 6 l167 1 0 -90z"/>
<path d="M12790 7861 l0 -421 105 0 105 0 0 340 0 340 73 0 c98 0 107 -10 107
-113 l0 -77 106 0 106 0 -3 118 c-5 136 -19 172 -84 206 -37 19 -59 21 -277
24 l-238 3 0 -420z"/>
<path d="M13787 8265 c-120 -24 -188 -79 -247 -200 -65 -132 -63 -282 5 -422
52 -107 130 -166 253 -192 29 -6 138 -11 242 -11 l190 0 0 84 0 83 -167 6
c-183 5 -237 18 -285 64 -39 38 -53 86 -52 189 1 106 20 156 73 191 54 36 96
43 269 43 l162 0 0 90 0 90 -187 -1 c-114 -1 -215 -6 -256 -14z"/>
</g>
</svg>
